<?xml version="1.0" encoding="iso-8859-1"?>
<!-- Generator: Adobe Illustrator 19.0.0, SVG Export Plug-In . SVG Version: 6.00 Build 0)  -->
<svg version="1.1" id="Capa_1" xmlns="http://www.w3.org/2000/svg" xmlns:xlink="http://www.w3.org/1999/xlink" x="0px" y="0px"
	 viewBox="0 0 512 512" style="enable-background:new 0 0 512 512;" xml:space="preserve">
<g>
	<path style="fill:#BA6746;" d="M464.444,507.86l-98.286-75.997c-7.912-6.119-10.023-17.175-4.922-25.779l36.343-61.287
		c5.58-9.412,17.737-12.516,27.145-6.936c9.411,5.581,12.517,17.735,6.935,27.146l-27.41,46.222l84.43,65.284
		c8.656,6.693,10.248,19.136,3.554,27.791C485.545,512.961,473.101,514.554,464.444,507.86z"/>
	<path style="fill:#BA6746;" d="M307.847,480.054l-24.665-114.157c-2.591-11.993,6.245-23.434,18.488-23.977l112.099-6.812
		c10.959-0.484,20.185,7.986,20.669,18.916c0.485,10.931-7.985,20.185-18.915,20.669l-88.655,5.774l19.709,91.219
		c2.311,10.695-4.487,21.238-15.18,23.549C320.749,497.534,310.17,490.799,307.847,480.054z"/>
</g>
<path style="fill:#3C5A73;" d="M404.252,411.23l27.41-46.222c5.582-9.411,2.476-21.565-6.935-27.146
	c-9.408-5.58-21.565-2.476-27.145,6.936l-32.73,55.193L404.252,411.23z"/>
<path style="fill:#55879B;" d="M413.769,335.108l-93.692,5.693l9.362,39.498l86.083-5.606c10.93-0.484,19.4-9.738,18.915-20.669
	C433.954,343.093,424.728,334.624,413.769,335.108z"/>
<path style="fill:#FA2D14;" d="M434.458,352.855l-91.715-13.43l-22.167-98.587c-2.454-10.916,4.405-21.756,15.322-24.21
	l44.896-10.095c10.916-2.454,21.756,4.405,24.21,15.322L434.458,352.855z"/>
<g>
	<circle style="fill:#BA6746;" cx="335.183" cy="165.778" r="33.859"/>
	<path style="fill:#BA6746;" d="M226.605,146.566c0.046,2.033,0.426,4.09,1.176,6.102l26.069,69.977
		c2.186,5.866,7.16,10.247,13.256,11.674l88.632,20.743c10.051,2.352,20.106-3.889,22.459-13.94
		c2.358-10.049-3.889-20.106-13.94-22.459l-78.874-18.46l-22.571-60.586c-3.604-9.674-14.366-14.593-24.04-10.99
		C231.109,131.482,226.43,138.829,226.605,146.566z"/>
</g>
<path style="fill:#FA2D14;" d="M370.074,157.58c0.662,2.232-1.012,4.478-3.342,4.478h-63.929c-2.426,0-4.113-2.423-3.269-4.698
	l3.112-8.389c0.615-1.658,2.196-2.757,3.964-2.757h56.935c1.871,0,3.52,1.23,4.053,3.025L370.074,157.58z"/>
<path style="fill:#F0AB95;" d="M31.162,503.425c-11.631-3.598-18.145-15.944-14.545-27.575l34.301-110.887l5.347-110.764
	c0.587-12.161,10.921-21.543,23.082-20.956s21.543,10.921,20.956,23.082l-5.482,113.551c-0.089,1.85-0.412,3.682-0.96,5.451
	L58.737,488.879C55.144,500.491,42.809,507.028,31.162,503.425z"/>
<path style="fill:#EB7F09;" d="M95.531,355.186l4.772-98.861c0.587-12.161-8.795-22.495-20.956-23.082s-22.495,8.795-23.082,20.956
	l-4.875,100.987h44.142V355.186z"/>
<path style="fill:#F0AB95;" d="M109.619,156.014c-3.689-9.451,0.982-20.104,10.433-23.793l67.402-26.311l36.508-70.448
	c4.668-9.008,15.755-12.526,24.764-7.858c9.008,4.668,12.526,15.755,7.858,24.764l-39.693,76.592
	c-2.053,3.961-5.476,7.038-9.631,8.66l-73.848,28.827C123.942,170.143,113.3,165.446,109.619,156.014z"/>
<circle style="fill:#FF640A;" cx="253.691" cy="40.632" r="40.632"/>
<path style="fill:#CD5014;" d="M294.32,40.632c0-0.972-0.046-1.931-0.113-2.886h-16.55c0.594-7.859,3.586-15.195,8.686-21.29
	c-1.163-1.569-2.436-3.05-3.809-4.434l-0.059,0.067c-6.23,7.156-9.974,16.235-10.599,25.658h-15.303V0.113
	C255.618,0.046,254.659,0,253.688,0s-1.931,0.046-2.886,0.113v37.632H235.5c-0.625-9.422-4.37-18.501-10.599-25.658l-0.058-0.067
	c-1.372,1.383-2.646,2.865-3.809,4.434c5.1,6.097,8.092,13.432,8.686,21.291h-16.55c-0.067,0.955-0.113,1.914-0.113,2.886
	c0,0.972,0.046,1.931,0.113,2.886h16.55c-0.594,7.859-3.586,15.194-8.686,21.29c1.163,1.569,2.436,3.05,3.809,4.434l0.059-0.068
	c6.23-7.155,9.973-16.233,10.599-25.657h15.302v37.632c0.955,0.067,1.914,0.113,2.886,0.113s1.931-0.046,2.885-0.113V43.518h15.303
	c0.626,9.422,4.37,18.5,10.599,25.657l0.059,0.068c1.372-1.383,2.646-2.865,3.809-4.434c-5.1-6.096-8.092-13.431-8.686-21.29h16.55
	C294.273,42.563,294.32,41.603,294.32,40.632z"/>
<path style="fill:#FFB69E;" d="M134.789,427.284l-18.46-107.246l-88.8-46.048c-10.809-5.605-15.027-18.91-9.422-29.719
	c5.604-10.809,18.911-15.027,29.718-9.422l98.521,51.089c6.124,3.176,10.407,9.034,11.577,15.831l20.317,118.037
	c2.066,11.999-5.987,23.4-17.985,25.465C148.279,447.332,136.858,439.309,134.789,427.284z"/>
<path style="fill:#FA870A;" d="M146.346,285.938l-98.521-51.089c-10.807-5.606-24.114-1.386-29.718,9.422
	c-5.605,10.809-1.386,24.114,9.422,29.719l87.437,45.341L146.346,285.938z"/>
<path style="fill:#FFA50A;" d="M112.804,268.544l-95.747-21.946l46.796-123.386c5.038-13.282,19.888-19.965,33.17-14.928
	l42.885,16.265c13.282,5.038,19.965,19.888,14.928,33.17L112.804,268.544z"/>
<circle style="fill:#F0AB95;" cx="136.197" cy="70.232" r="38.076"/>
<path style="fill:#FFB69E;" d="M87.145,135.629c-1.987-9.949,4.466-19.626,14.415-21.615l70.952-14.178l48.214-63.018
	c6.165-8.058,17.695-9.594,25.754-3.428c8.058,6.165,9.593,17.696,3.428,25.754l-52.419,68.515
	c-2.711,3.542-6.616,5.978-10.991,6.852l-77.738,15.534C98.79,152.036,89.128,145.558,87.145,135.629z"/>
<g>
</g>
<g>
</g>
<g>
</g>
<g>
</g>
<g>
</g>
<g>
</g>
<g>
</g>
<g>
</g>
<g>
</g>
<g>
</g>
<g>
</g>
<g>
</g>
<g>
</g>
<g>
</g>
<g>
</g>
</svg>
